<?xml version="1.0" encoding="UTF-8"?>
<svg id="Layer_1" data-name="Layer 1" xmlns="http://www.w3.org/2000/svg" viewBox="0 0 642.88 695.71">
  <defs>
    <style>
      .cls-1 {
        fill: #05253e;
      }

      .cls-2 {
        fill: #dd9720;
      }
    </style>
  </defs>
  <path class="cls-2" d="M561.44,175.14l-210.45-121.48c-17.23-9.98-38.65-9.93-55.86.16l-212.55,124.37c-16.86,9.85-27.4,28.11-27.53,47.65l-1.4,246.27c-.13,19.91,10.51,38.49,27.77,48.44l45.21,26.1,25.97,15.01,139.27,80.4c8.58,4.95,18.19,7.44,27.8,7.44s19.4-2.54,28.06-7.6l212.57-124.37c16.86-9.87,27.4-28.14,27.5-47.65l1.43-246.27c.11-19.93-10.54-38.49-27.8-48.47ZM545.45,469.64c-.03,4.63-2.54,8.97-6.54,11.33l-212.57,124.37c-4.1,2.38-9.19,2.41-13.29.03l-129.87-75-26.45-15.25-54.14-31.26c-4.1-2.36-6.62-6.78-6.59-11.52l1.4-246.27c.03-4.66,2.54-9,6.57-11.33l212.55-124.37c2.06-1.22,4.37-1.83,6.7-1.83s4.55.61,6.59,1.77l210.45,121.51c4.1,2.38,6.64,6.78,6.62,11.52l-1.43,246.3Z"/>
  <path class="cls-1" d="M287.37,185.67v42.67c96.54,12.81,171.2,94.21,171.2,192.35,0,4.98-.19,9.87-.58,14.75h42.46c.32-4.87.48-9.79.48-14.75,0-121.51-93.58-221.92-213.55-235.02Z"/>
  <path class="cls-1" d="M268.92,273.72v42.46c55.19,4.13,98.79,49.42,98.79,104.51,0,5-.37,9.93-1.09,14.75h42.7c.48-4.84.74-9.77.74-14.75,0-78.44-62.61-142.74-141.15-146.97Z"/>
  <path class="cls-1" d="M262.68,373.79c-27.35,0-49.52,22.17-49.52,49.52,0,9.26,2.59,17.9,7.02,25.32l-63.45,66.5-30.1,31.53,25.97,15.01,30.58-31.29,60.09-61.51c5.96,2.54,12.52,3.96,19.42,3.96,27.35,0,49.52-22.17,49.52-49.52s-22.17-49.52-49.52-49.52Z"/>
</svg>